<?xml version="1.0" encoding="utf-8"?>
<!-- Generator: Adobe Illustrator 24.3.0, SVG Export Plug-In . SVG Version: 6.00 Build 0)  -->
<svg version="1.1" id="Layer_1" xmlns="http://www.w3.org/2000/svg" xmlns:xlink="http://www.w3.org/1999/xlink" x="0px" y="0px"
	 viewBox="0 0 758.7 475.6" style="enable-background:new 0 0 758.7 475.6;" xml:space="preserve">
<style type="text/css">
	.st0{fill:#8F2FD3;}
</style>
<path class="st0" d="M308.6,214.1c40.2-19.2,61.2-48.3,61.2-93.5c0-89.2-66.5-111-143.2-111H15.3v448h217.2
	c81.4,0,157.9-39.1,157.9-130C390.4,271.3,363.7,229.7,308.6,214.1L308.6,214.1z M113.8,86.2h92.4c35.5,0,67.5,10,67.5,51.2
	c0,38-24.9,53.3-60,53.3h-99.9V86.2z M219.1,381.4H113.8V258.1h107.3c43.4,0,70.8,18.1,70.8,64C291.9,367.3,259.2,381.5,219.1,381.4
	L219.1,381.4z M672.2,77.2H490.6V33.1h181.7V77.2z M743.4,300.1c0-95.9-56.1-175.9-157.9-175.9c-98.8,0-166,74.3-166,171.6
	c0,101,63.6,170.3,166,170.3c77.5,0,127.7-34.9,151.8-109.1h-78.6c-8.5,27.7-43.4,42.3-70.4,42.3c-52.2,0-79.6-30.6-79.6-82.5h233.9
	C743,311.4,743.4,305.7,743.4,300.1L743.4,300.1z M508.8,260.7c2.9-42.6,31.2-69.3,74-69.3c44.7,0,67.3,26.3,71,69.3H508.8z"/>
</svg>
