<?xml version="1.0" encoding="utf-8"?>
<!-- Generator: Adobe Illustrator 24.3.0, SVG Export Plug-In . SVG Version: 6.00 Build 0)  -->
<svg version="1.1" id="Layer_1" xmlns="http://www.w3.org/2000/svg" xmlns:xlink="http://www.w3.org/1999/xlink" x="0px" y="0px"
	 viewBox="0 0 359.7 301.7" style="enable-background:new 0 0 359.7 301.7;" xml:space="preserve">
<style type="text/css">
	.st0{fill:#A340E0;}
</style>
<path class="st0" d="M208.9,150.8L287,72.7c6.9-6.9,5.8-19.1-2.4-27.3c-8.2-8.2-20.4-9.3-27.3-2.4l-78.1,78.1l-76.8-76.8
	c-6.9-6.9-19.1-5.8-27.3,2.4S65.8,67.1,72.7,74l76.8,76.8l-76.8,76.8c-6.9,6.9-5.8,19.1,2.4,27.3c8.2,8.2,20.4,9.3,27.3,2.4
	l76.8-76.8l78.1,78.1c6.9,6.9,19.1,5.8,27.3-2.4c8.2-8.2,9.3-20.4,2.4-27.3L208.9,150.8z"/>
</svg>
