<svg xmlns="http://www.w3.org/2000/svg" viewBox="0 0 97.7 152.54"><defs><style>.a{fill:#878787;}</style></defs><path class="a" d="M99.94,138l-42.6,38.11-.31.25-.27.22-.48.32-.28.15-.35.18-.29.12-.36.14-.29.1-.39.1-.28.07-.45.07-.23,0c-.23,0-.46,0-.69,0a6.46,6.46,0,0,1-1.07-.1l-.22,0a5.92,5.92,0,0,1-1-.27l-.22-.08-.34-.13-.4-.22-.36-.19a7,7,0,0,1-.9-.64l0,0h0l0,0L7,141.1a7,7,0,1,1,9.1-10.64l29.56,25.26V32.37a7,7,0,0,1,7-7h0a7,7,0,0,1,7,7V155.25l30.93-27.67A7,7,0,1,1,99.94,138Z" transform="translate(-4.57 -25.37)"/></svg>