<svg xmlns="http://www.w3.org/2000/svg" viewBox="0 0 514.69 501.83"><defs><style>.a{fill:#8f2fd3;}</style></defs><path class="a" d="M206.24,441.24c0,2.08-2.38,3.73-5.39,3.73-3.43.32-5.81-1.34-5.81-3.73,0-2.08,2.38-3.74,5.39-3.74C203.54,437.19,206.24,438.85,206.24,441.24ZM174,436.57c-.72,2.08,1.35,4.46,4.47,5.09,2.69,1,5.81,0,6.42-2.08s-1.34-4.46-4.46-5.4c-2.69-.72-5.7.32-6.43,2.39Zm45.87-1.76c-3,.72-5.08,2.69-4.77,5.08.31,2.08,3,3.43,6.12,2.7s5.09-2.7,4.78-4.78-3.12-3.31-6.13-3ZM288.12,37.17c-143.93,0-254,109.26-254,253.19,0,115.08,72.43,213.56,175.89,248.22,13.28,2.38,18-5.82,18-12.56,0-6.43-.31-41.92-.31-63.72,0,0-72.64,15.57-87.89-30.92,0,0-11.83-30.19-28.85-38,0,0-23.76-16.29,1.66-16A54.78,54.78,0,0,1,152.6,404.2c22.72,40.05,60.81,28.53,75.64,21.68,2.39-16.6,9.14-28.12,16.61-35-58-6.43-116.53-14.83-116.53-114.66,0-28.54,7.88-42.86,24.49-61.12-2.7-6.74-11.52-34.56,2.69-70.46,21.69-6.74,71.6,28,71.6,28a245.18,245.18,0,0,1,130.34,0s49.91-34.87,71.6-28c14.21,36,5.39,63.71,2.69,70.46,16.61,18.37,26.78,32.69,26.78,61.12,0,100.14-61.12,108.13-119.13,114.66,9.55,8.2,17.64,23.77,17.64,48.15,0,35-.31,78.24-.31,86.75,0,6.75,4.77,15,18,12.56,103.77-34.45,174.12-132.93,174.12-248C548.78,146.43,432,37.17,288.12,37.17ZM135,395.06c-1.35,1-1,3.43.73,5.4,1.66,1.66,4,2.39,5.4,1,1.35-1,1-3.43-.73-5.4C138.69,394.44,136.3,393.71,135,395.06Zm-11.2-8.4c-.73,1.35.31,3,2.38,4,1.66,1,3.74.73,4.47-.72s-.32-3-2.39-4.05c-2.08-.62-3.74-.31-4.46.73Zm33.62,36.94c-1.66,1.35-1,4.46,1.35,6.43,2.38,2.38,5.39,2.69,6.74,1,1.35-1.34.73-4.46-1.35-6.42-2.28-2.39-5.39-2.7-6.74-1Zm-11.83-15.26c-1.66,1-1.66,3.74,0,6.13s4.46,3.42,5.81,2.38c1.66-1.35,1.66-4,0-6.43-1.45-2.39-4.15-3.42-5.81-2.07Z" transform="translate(-34.09 -37.17)"/></svg>