<svg xmlns="http://www.w3.org/2000/svg" viewBox="0 0 501 500.89"><defs><style>.a{fill:#8f2fd3;}</style></defs><path class="a" d="M277.55,146.08a128.22,128.22,0,1,0,.42,0Zm0,211.91a83.49,83.49,0,1,1,83.5-83.49h0A83.66,83.66,0,0,1,277.55,358ZM441.18,140.82a29.89,29.89,0,1,1,0-.13Zm85.07,30.4c-1.9-40.12-11.07-75.66-40.46-104.95S421,27.83,380.83,25.81c-41.36-2.34-165.31-2.34-206.66,0-40,1.9-75.56,11.07-104.95,40.35S30.77,131,28.76,171.11c-2.35,41.36-2.35,165.31,0,206.66,1.9,40.12,11.07,75.67,40.46,105s64.83,38.44,105,40.46c41.35,2.34,165.3,2.34,206.66,0,40.12-1.9,75.67-11.07,105-40.46s38.45-64.83,40.46-105c2.35-41.36,2.35-165.2,0-206.55ZM472.82,422.14a84.51,84.51,0,0,1-47.61,47.61c-33,13.08-111.21,10.06-147.65,10.06s-114.78,2.91-147.64-10.06a84.51,84.51,0,0,1-47.61-47.61c-13.08-33-10.06-111.21-10.06-147.64S69.34,159.71,82.31,126.85a84.49,84.49,0,0,1,47.6-47.61c33-13.08,111.21-10.06,147.65-10.06S392.34,66.27,425.2,79.24a84.51,84.51,0,0,1,47.61,47.61c13.08,33,10.06,111.21,10.06,147.65s3,114.78-10.06,147.64Z" transform="translate(-27 -24.05)"/></svg>