<?xml version="1.0" encoding="utf-8"?>
<!-- Generator: Adobe Illustrator 24.3.0, SVG Export Plug-In . SVG Version: 6.00 Build 0)  -->
<svg version="1.1" id="Layer_1" xmlns="http://www.w3.org/2000/svg" xmlns:xlink="http://www.w3.org/1999/xlink" x="0px" y="0px"
	 viewBox="0 0 483.7 65" style="enable-background:new 0 0 483.7 65;" xml:space="preserve">
<style type="text/css">
	.st0{enable-background:new    ;}
	.st1{fill:#2E034C;}
</style>
<g class="st0">
	<path class="st1" d="M36.6,48.6c-1.9,0.7-3.7,1.3-5.4,1.7c-1.7,0.4-3.6,0.5-5.4,0.5c-3,0-5.7-0.4-8-1.3c-2.3-0.9-4.3-2.2-5.9-4
		c-1.6-1.8-2.8-3.9-3.6-6.5c-0.8-2.6-1.2-5.6-1.2-9.1c0-3.5,0.4-6.7,1.3-9.4c0.9-2.7,2.2-5.1,3.8-7s3.7-3.3,6.1-4.3
		c2.4-1,5.1-1.5,8-1.5c1,0,1.9,0,2.7,0.1c0.8,0,1.7,0.1,2.5,0.2c0.8,0.1,1.6,0.3,2.5,0.5c0.8,0.2,1.7,0.4,2.6,0.7V17
		c-1.8-0.9-3.6-1.5-5.2-1.8c-1.6-0.4-3.1-0.5-4.5-0.5c-2,0-3.7,0.4-5.1,1.1c-1.4,0.7-2.6,1.7-3.5,3c-0.9,1.3-1.6,2.8-2,4.6
		c-0.4,1.8-0.6,3.7-0.6,5.9c0,2.3,0.2,4.3,0.7,6.1c0.4,1.8,1.1,3.3,2,4.5c0.9,1.2,2.1,2.2,3.5,2.8c1.4,0.7,3.1,1,5.1,1
		c0.7,0,1.5-0.1,2.3-0.2c0.8-0.1,1.7-0.3,2.5-0.5c0.8-0.2,1.7-0.5,2.5-0.8c0.8-0.3,1.6-0.6,2.3-0.9V48.6z"/>
	<path class="st1" d="M71.6,33.7c0,2.6-0.4,4.9-1.1,7c-0.7,2.1-1.8,4-3.1,5.5c-1.4,1.5-3,2.7-5,3.5c-2,0.8-4.3,1.3-6.8,1.3
		c-2.4,0-4.6-0.4-6.5-1.1c-1.9-0.7-3.5-1.8-4.8-3.2c-1.3-1.4-2.3-3.2-3-5.3s-1.1-4.6-1.1-7.4c0-2.6,0.4-4.9,1.1-7.1
		c0.7-2.1,1.8-3.9,3.2-5.4c1.4-1.5,3.1-2.7,5.1-3.5s4.2-1.2,6.7-1.2c2.4,0,4.6,0.4,6.5,1.1c1.9,0.7,3.5,1.8,4.8,3.2
		c1.3,1.4,2.3,3.2,3,5.2C71.3,28.5,71.6,30.9,71.6,33.7z M63.5,33.8c0-3.4-0.6-5.9-1.9-7.6c-1.3-1.7-3.1-2.6-5.6-2.6
		c-1.4,0-2.5,0.3-3.5,0.8c-1,0.5-1.8,1.3-2.4,2.2c-0.6,0.9-1.1,2-1.4,3.3s-0.4,2.6-0.4,4c0,3.4,0.7,6,2.1,7.7
		c1.4,1.7,3.2,2.6,5.6,2.6c1.3,0,2.4-0.3,3.4-0.8c1-0.5,1.7-1.3,2.3-2.2c0.6-0.9,1-2,1.3-3.3C63.3,36.7,63.5,35.3,63.5,33.8z"/>
	<path class="st1" d="M96.1,50.2l-0.2-4.8c-0.7,0.8-1.4,1.6-2.1,2.3c-0.7,0.7-1.5,1.3-2.3,1.7c-0.8,0.5-1.7,0.9-2.7,1.1
		c-1,0.3-2,0.4-3.2,0.4c-1.9,0-3.6-0.4-5.1-1.2c-1.5-0.8-2.8-1.9-3.8-3.3c-1-1.4-1.8-3.1-2.3-5.2c-0.5-2-0.8-4.3-0.8-6.8
		c0-3,0.4-5.6,1.3-7.8c0.8-2.2,2-4,3.5-5.5c1.5-1.4,3.3-2.5,5.3-3.2c2.1-0.7,4.3-1,6.7-1c0.8,0,1.6,0.1,2.5,0.2
		c0.8,0.1,1.6,0.2,2.2,0.4V4.9h7.8v45.3H96.1z M81.8,34.2c0,1.8,0.1,3.3,0.4,4.6c0.2,1.3,0.6,2.3,1.1,3.1c0.5,0.8,1.1,1.4,1.8,1.8
		c0.7,0.4,1.5,0.6,2.4,0.6c1.3,0,2.6-0.5,3.8-1.6c1.2-1.1,2.5-2.5,3.8-4.4V24c-0.6-0.2-1.4-0.4-2.3-0.6c-0.9-0.1-1.8-0.2-2.7-0.2
		c-1.3,0-2.4,0.3-3.4,0.8c-1,0.5-1.9,1.2-2.6,2.2c-0.7,0.9-1.3,2.1-1.7,3.4C82,31,81.8,32.5,81.8,34.2z"/>
	<path class="st1" d="M137.4,31.4c0,0.5,0,1.2,0,2.1c0,0.9-0.1,1.7-0.1,2.4h-21.4c0,1.4,0.2,2.7,0.7,3.8c0.4,1.1,1.1,2,1.9,2.7
		c0.8,0.7,1.8,1.3,2.9,1.7c1.1,0.4,2.4,0.6,3.7,0.6c1.6,0,3.3-0.1,5.1-0.4c1.8-0.2,3.7-0.6,5.6-1.2v6.2c-0.8,0.2-1.7,0.4-2.7,0.6
		c-1,0.2-2,0.4-3,0.5c-1,0.1-2.1,0.3-3.1,0.3c-1,0.1-2.1,0.1-3,0.1c-2.5,0-4.7-0.4-6.7-1.1c-2-0.7-3.6-1.7-5-3.1
		c-1.4-1.4-2.4-3.1-3.1-5.1c-0.7-2-1.1-4.4-1.1-7.1c0-2.7,0.4-5.1,1.1-7.2c0.7-2.2,1.8-4,3.1-5.6c1.3-1.6,2.9-2.7,4.8-3.6
		s4-1.3,6.3-1.3c2.3,0,4.4,0.4,6.1,1.1c1.8,0.7,3.3,1.7,4.5,3c1.2,1.3,2.1,2.8,2.7,4.6C137.1,27.3,137.4,29.3,137.4,31.4z
		 M129.4,30.3c0-1.3-0.1-2.4-0.5-3.4c-0.3-1-0.8-1.7-1.4-2.4c-0.6-0.6-1.3-1.1-2.1-1.4c-0.8-0.3-1.6-0.4-2.5-0.4c-2,0-3.6,0.7-4.8,2
		c-1.3,1.3-2,3.2-2.2,5.6H129.4z"/>
	<path class="st1" d="M199,50.2l-0.8-23.7l-0.3-9.5l-2,6.4l-4.7,14.3h-4.9l-4.2-14.3l-1.8-6.4l-0.2,9.3l-0.7,23.9h-6.7l2.1-41.9h8.9
		l3.7,11.9l1.8,6.7l1.8-6.3l3.9-12.3h9.1l2.1,41.9H199z"/>
	<path class="st1" d="M219.6,23.7h-9.2v-6.1h17.2v26.5h9.4v6.1h-27.7v-6.1h10.3V23.7z M228.2,8.7c0,0.7-0.1,1.4-0.4,2
		c-0.3,0.6-0.6,1.2-1.1,1.6c-0.5,0.5-1,0.8-1.6,1.1c-0.6,0.3-1.3,0.4-2,0.4c-0.7,0-1.4-0.1-2-0.4c-0.6-0.3-1.2-0.6-1.6-1.1
		c-0.5-0.5-0.8-1-1.1-1.6s-0.4-1.3-0.4-2c0-0.7,0.1-1.4,0.4-2s0.6-1.2,1.1-1.6s1-0.8,1.6-1.1s1.3-0.4,2-0.4c0.7,0,1.4,0.1,2,0.4
		c0.6,0.3,1.2,0.6,1.6,1.1s0.8,1,1.1,1.6C228.1,7.3,228.2,8,228.2,8.7z"/>
	<path class="st1" d="M261.9,50.2V29c0-3.6-1.3-5.4-4-5.4c-1.3,0-2.6,0.5-3.8,1.6c-1.2,1.1-2.5,2.5-3.8,4.4v20.6h-7.8V17.6h6.8
		l0.2,4.8c0.7-0.8,1.4-1.6,2.1-2.3c0.7-0.7,1.5-1.3,2.3-1.7c0.8-0.5,1.7-0.9,2.7-1.1c1-0.3,2-0.4,3.2-0.4c1.7,0,3.1,0.3,4.4,0.8
		c1.2,0.5,2.3,1.3,3.1,2.3s1.5,2.2,1.9,3.6c0.4,1.4,0.6,3,0.6,4.7v21.9H261.9z"/>
	<path class="st1" d="M296.3,50.2l-0.2-4.8c-0.7,0.8-1.4,1.6-2.1,2.3c-0.7,0.7-1.5,1.3-2.3,1.7c-0.8,0.5-1.7,0.9-2.7,1.1
		c-1,0.3-2,0.4-3.2,0.4c-1.9,0-3.6-0.4-5.1-1.2c-1.5-0.8-2.8-1.9-3.8-3.3c-1-1.4-1.8-3.1-2.3-5.2c-0.5-2-0.8-4.3-0.8-6.8
		c0-3,0.4-5.6,1.3-7.8s2-4,3.5-5.5c1.5-1.4,3.3-2.5,5.3-3.2c2.1-0.7,4.3-1,6.7-1c0.8,0,1.6,0.1,2.5,0.2c0.8,0.1,1.6,0.2,2.2,0.4V4.9
		h7.8v45.3H296.3z M282,34.2c0,1.8,0.1,3.3,0.4,4.6c0.2,1.3,0.6,2.3,1.1,3.1c0.5,0.8,1.1,1.4,1.8,1.8s1.5,0.6,2.4,0.6
		c1.3,0,2.6-0.5,3.8-1.6s2.5-2.5,3.8-4.4V24c-0.6-0.2-1.4-0.4-2.3-0.6s-1.8-0.2-2.7-0.2c-1.3,0-2.4,0.3-3.4,0.8
		c-1,0.5-1.9,1.2-2.6,2.2s-1.3,2.1-1.7,3.4C282.2,31,282,32.5,282,34.2z"/>
	<path class="st1" d="M336,40.6c0,1.9-0.4,3.4-1.2,4.8s-1.9,2.4-3.3,3.2c-1.4,0.8-2.9,1.4-4.6,1.8c-1.7,0.4-3.5,0.6-5.3,0.6
		c-2.4,0-4.6-0.1-6.5-0.3c-1.9-0.2-3.7-0.6-5.5-1v-7.1c2,0.8,4,1.4,6,1.8c2,0.4,3.9,0.6,5.7,0.6c2.1,0,3.6-0.3,4.6-1
		c1-0.7,1.5-1.5,1.5-2.6c0-0.5-0.1-0.9-0.3-1.3c-0.2-0.4-0.6-0.8-1.2-1.2c-0.6-0.4-1.4-0.8-2.5-1.2c-1.1-0.4-2.5-0.8-4.2-1.3
		c-1.6-0.4-3-1-4.2-1.5c-1.2-0.6-2.2-1.2-3-2c-0.8-0.8-1.4-1.7-1.8-2.7c-0.4-1-0.6-2.2-0.6-3.6c0-1.3,0.3-2.6,0.9-3.8
		s1.5-2.2,2.7-3.1s2.7-1.6,4.4-2.1c1.8-0.5,3.8-0.8,6.2-0.8c2.1,0,3.9,0.1,5.5,0.3s3,0.4,4.2,0.7v6.4c-1.9-0.6-3.6-1-5.2-1.3
		c-1.6-0.2-3.3-0.4-4.9-0.4s-2.9,0.3-3.9,0.9c-1,0.6-1.5,1.4-1.5,2.4c0,0.5,0.1,0.9,0.3,1.3c0.2,0.4,0.6,0.8,1.1,1.1
		c0.6,0.4,1.4,0.7,2.4,1.1c1,0.4,2.4,0.8,4,1.3c1.9,0.5,3.5,1.1,4.7,1.7c1.3,0.6,2.3,1.3,3.1,2.1c0.8,0.8,1.3,1.6,1.7,2.6
		C335.9,38.2,336,39.4,336,40.6z"/>
	<path class="st1" d="M368.9,49c-1.5,0.6-3.1,1.1-4.8,1.4c-1.6,0.3-3.4,0.4-5.2,0.4c-2.6,0-4.9-0.4-7-1.1c-2.1-0.7-3.8-1.8-5.2-3.1
		s-2.5-3.1-3.3-5.2c-0.8-2.1-1.1-4.4-1.1-7.1c0-2.6,0.4-5,1.2-7.1s2-3.9,3.5-5.4c1.5-1.5,3.3-2.7,5.4-3.5c2.1-0.8,4.5-1.2,7-1.2
		c2.1,0,3.9,0.1,5.3,0.3s2.7,0.5,3.9,0.9v7.6c-1.3-0.7-2.8-1.2-4.3-1.5c-1.6-0.4-3-0.5-4.4-0.5c-1.5,0-2.8,0.2-3.9,0.7
		s-2.1,1.2-2.9,2.1c-0.8,0.9-1.4,1.9-1.8,3.2c-0.4,1.3-0.6,2.6-0.6,4.1c0,1.6,0.2,3,0.7,4.2s1.1,2.3,1.9,3.2s1.8,1.5,3,2
		s2.4,0.7,3.8,0.7c0.7,0,1.4,0,2.2-0.1c0.8-0.1,1.5-0.2,2.3-0.4c0.8-0.2,1.5-0.4,2.2-0.6c0.7-0.2,1.4-0.5,2.1-0.8V49z"/>
	<path class="st1" d="M396.3,50.2l-0.2-4.3c-0.7,0.7-1.4,1.4-2.1,2s-1.6,1.1-2.5,1.6s-1.9,0.8-2.9,1c-1.1,0.2-2.2,0.4-3.5,0.4
		c-1.7,0-3.1-0.2-4.4-0.7c-1.3-0.5-2.3-1.2-3.2-2.1c-0.9-0.9-1.5-1.9-1.9-3.2c-0.4-1.2-0.7-2.6-0.7-4.1c0-1.5,0.3-3,1-4.3
		s1.6-2.4,3-3.4c1.3-0.9,3-1.7,5-2.2c2-0.5,4.3-0.8,7-0.8h4.3v-2c0-0.8-0.1-1.6-0.4-2.3c-0.2-0.7-0.6-1.2-1.1-1.7
		c-0.5-0.5-1.2-0.8-2-1.1s-1.9-0.4-3.1-0.4c-1.9,0-3.8,0.2-5.7,0.7s-3.7,1.1-5.4,1.8v-6.3c1.6-0.6,3.4-1.1,5.4-1.5
		c2-0.4,4.2-0.6,6.4-0.6c2.4,0,4.5,0.2,6.2,0.7s3.2,1.1,4.3,2.1c1.1,0.9,2,2.1,2.5,3.4s0.8,3,0.8,4.8v22.3H396.3z M395.2,35.8h-4.8
		c-1.3,0-2.4,0.1-3.4,0.4c-0.9,0.3-1.7,0.6-2.2,1.1s-1,1-1.3,1.6c-0.3,0.6-0.4,1.2-0.4,1.9c0,1.3,0.4,2.3,1.3,3s2,1,3.5,1
		c1.1,0,2.2-0.4,3.4-1.2c1.2-0.8,2.5-1.9,3.9-3.4V35.8z"/>
	<path class="st1" d="M438.6,33.3c0,3-0.4,5.6-1.3,7.8c-0.8,2.2-2,4-3.5,5.4c-1.5,1.4-3.3,2.5-5.3,3.2c-2.1,0.7-4.3,1-6.7,1
		c-0.8,0-1.6-0.1-2.4-0.2c-0.8-0.1-1.6-0.2-2.2-0.4v12.7h-7.8V17.6h6.8l0.2,4.8c0.7-0.8,1.4-1.6,2.1-2.3c0.7-0.7,1.5-1.3,2.3-1.7
		c0.8-0.5,1.7-0.9,2.7-1.1c1-0.3,2-0.4,3.2-0.4c1.9,0,3.6,0.4,5.1,1.2s2.8,1.9,3.8,3.3c1,1.4,1.8,3.1,2.3,5.2
		C438.3,28.5,438.6,30.8,438.6,33.3z M430.4,33.7c0-1.8-0.1-3.3-0.4-4.6c-0.3-1.3-0.6-2.3-1.1-3.1c-0.5-0.8-1.1-1.4-1.8-1.8
		s-1.5-0.6-2.4-0.6c-1.3,0-2.6,0.5-3.8,1.6c-1.2,1.1-2.5,2.5-3.8,4.4v14.2c0.6,0.2,1.4,0.4,2.3,0.6s1.8,0.2,2.8,0.2
		c1.2,0,2.4-0.3,3.4-0.8c1-0.5,1.9-1.2,2.6-2.2s1.3-2.1,1.7-3.4C430.2,36.9,430.4,35.3,430.4,33.7z"/>
	<path class="st1" d="M471,31.4c0,0.5,0,1.2,0,2.1c0,0.9-0.1,1.7-0.1,2.4h-21.4c0,1.4,0.2,2.7,0.7,3.8c0.4,1.1,1.1,2,1.9,2.7
		c0.8,0.7,1.8,1.3,2.9,1.7c1.1,0.4,2.4,0.6,3.7,0.6c1.6,0,3.3-0.1,5.1-0.4s3.7-0.6,5.6-1.2v6.2c-0.8,0.2-1.7,0.4-2.7,0.6
		c-1,0.2-2,0.4-3,0.5s-2.1,0.3-3.1,0.3c-1,0.1-2.1,0.1-3,0.1c-2.5,0-4.7-0.4-6.7-1.1c-2-0.7-3.6-1.7-5-3.1c-1.4-1.4-2.4-3.1-3.1-5.1
		c-0.7-2-1.1-4.4-1.1-7.1c0-2.7,0.4-5.1,1.1-7.2c0.7-2.2,1.8-4,3.1-5.6s2.9-2.7,4.8-3.6s4-1.3,6.3-1.3c2.3,0,4.4,0.4,6.1,1.1
		c1.8,0.7,3.3,1.7,4.5,3c1.2,1.3,2.1,2.8,2.7,4.6C470.7,27.3,471,29.3,471,31.4z M463,30.3c0-1.3-0.1-2.4-0.5-3.4
		c-0.3-1-0.8-1.7-1.4-2.4s-1.3-1.1-2.1-1.4c-0.8-0.3-1.6-0.4-2.5-0.4c-2,0-3.6,0.7-4.8,2c-1.3,1.3-2,3.2-2.2,5.6H463z"/>
</g>
</svg>
