<?xml version="1.0" encoding="utf-8"?>
<!-- Generator: Adobe Illustrator 24.3.0, SVG Export Plug-In . SVG Version: 6.00 Build 0)  -->
<svg version="1.1" id="Layer_1" xmlns="http://www.w3.org/2000/svg" xmlns:xlink="http://www.w3.org/1999/xlink" x="0px" y="0px"
	 viewBox="0 0 359.7 301.7" style="enable-background:new 0 0 359.7 301.7;" xml:space="preserve">
<style type="text/css">
	.st0{fill:#A340E0;}
</style>
<path class="st0" d="M313.8,50.5c-10.6,0-20.3,5.5-25.9,14.5l-46.8,64.2l-0.5,0.7c-4.9,7.9-16,7.5-21.5-1.8l-17.9-30.2l-0.1-0.2
	c-25.2-40.3-75.2-57.5-119.8-41.1c-3.4,1.3-6.3,2.5-8.9,3.8l-0.6,0.3c-2.8,1.4-5.4,2.8-8,4.4c-13.8,8.4-25.3,19.9-33.7,33.7
	c-1.6,2.6-3.1,5.2-4.4,8l-0.3,0.7c-1.4,2.9-2.7,5.9-3.8,8.9c-6.3,17.3-7.8,36.1-4.2,54.2c0.8,3.8,1.8,7.6,3,11.3
	c5.3,15.7,14.3,29.9,26.3,41.3c6,5.7,12.6,10.7,19.8,14.8c11.5,7.7,27.2,4.6,34.9-6.9s4.6-27.2-6.9-34.9c-1-0.7-2-1.3-3.1-1.8
	c-2.7-1.5-5.2-3.3-7.6-5.3c-21.1-17.7-23.9-49.2-6.1-70.3c17.7-21.1,49.3-23.9,70.4-6.1c3.7,3.1,6.9,6.7,9.6,10.8l18.2,31.1l0.5,0.8
	c16.4,23.5,34.5,35.7,53.8,36.3c18.5,0.5,36.1-9.7,52.3-30.3l6.4-8.4c0.9-1.2,2.6-1.4,3.8-0.5c0.7,0.5,1.1,1.3,1.1,2.2v71
	c0,13.6,10.6,25.3,24.2,25.8c13.9,0.5,25.6-10.3,26.1-24.3l0,0c0-0.3,0-0.6,0-0.9V80.7C344.1,64,330.6,50.5,313.8,50.5z"/>
<path class="st0" d="M115.8,114.9c-19.8,0-35.9,16.1-35.9,35.9s16.1,35.9,35.9,35.9s35.9-16.1,35.9-35.9l0,0
	C151.7,131,135.6,114.9,115.8,114.9z M123.7,150.8c0,4.4-3.5,7.9-7.9,7.9c-4.4,0-7.9-3.5-7.9-7.9s3.5-7.9,7.9-7.9l0,0
	C120.2,142.9,123.7,146.4,123.7,150.8L123.7,150.8z"/>
</svg>
