<svg xmlns="http://www.w3.org/2000/svg" viewBox="0 0 54.73 54.7"><defs><style>.a{fill:#7323be;}</style></defs><path class="a" d="M32.92,62.61s0-6.94.23-6.94.41,9,.41,9c-.32,0-.64-1.47-.64-2Zm4.46-6.86A13.43,13.43,0,0,0,33.56,49h0a6,6,0,0,1-.6-1.15l0-.05v.05a1.26,1.26,0,0,1-.43.94h0a11.17,11.17,0,0,0-4,8.37h0v.14a10.11,10.11,0,0,0,4.06,8.11l0,0,.06,0c.1.8.2,1.6.27,2.4h.41a25.08,25.08,0,0,1,.45-2.73l0,.16a6.13,6.13,0,0,0,.71-.58h0a9.47,9.47,0,0,0,3-7V57.6h0a10.08,10.08,0,0,0-.18-1.92v.06Z" transform="translate(-4.64 -13.14)"/><path class="a" d="M31.14,27.24c.4,0,.8,0,1.21,0s.83,0,1.23,0a17.36,17.36,0,0,1-1.22,1.42h0a17.55,17.55,0,0,1-1.2-1.37ZM27,26.66a19.08,19.08,0,0,0,2.7.47h.1a19.42,19.42,0,0,0,1.84,2.21h0A6.45,6.45,0,0,1,28,31.4H28a1.06,1.06,0,0,1-.5-.12h0c-.6-.34-.86-1.65-.66-3.33.05-.42.13-.85.23-1.3Zm10.65,0c.08.35.16.78.22,1.22v.07c.2,1.68-.05,3-.65,3.33a.88.88,0,0,1-.46.12h0a6.55,6.55,0,0,1-3.7-2.05h0a21.39,21.39,0,0,0,1.77-2.14l0-.06a19.74,19.74,0,0,0,2.94-.52l-.14,0ZM27.88,24c.18.35.37.7.58,1.05s.41.7.63,1a17,17,0,0,1-1.81-.35c.17-.56.37-1.15.6-1.74Zm9,0a16.61,16.61,0,0,1,.61,1.75c-.57.14-1.18.26-1.81.35.21-.34.43-.68.63-1s.39-.71.58-1.06ZM26.32,20.09a20.38,20.38,0,0,0,1,2.82l-.05-.13a18.26,18.26,0,0,0-.94,2.52l0,.15A10.71,10.71,0,0,1,25,25l.08,0c-1.56-.67-2.57-1.54-2.57-2.23s1-1.57,2.57-2.23c.38-.16.79-.31,1.22-.45Zm12.06,0a12.82,12.82,0,0,1,1.24.45c1.56.66,2.57,1.54,2.57,2.23s-1,1.56-2.58,2.23c-.37.16-.79.3-1.22.44a20.38,20.38,0,0,0-1-2.82l0,.14a18.76,18.76,0,0,0,.94-2.52l0-.15Zm-2.76-.61c.63.1,1.23.21,1.81.35a18,18,0,0,1-.6,1.74c-.18-.35-.36-.7-.57-1.05s-.42-.7-.64-1Zm-6.53,0c-.22.34-.44.69-.64,1.05s-.39.7-.57,1c-.24-.59-.44-1.18-.61-1.75.58-.13,1.18-.25,1.82-.35Zm3.27-.23c.66,0,1.33,0,2,.09.37.52.72,1.08,1.07,1.67s.64,1.16.91,1.75c-.27.59-.58,1.18-.91,1.76s-.7,1.16-1.06,1.68c-.66.06-1.32.09-2,.09s-1.33,0-2-.08c-.36-.53-.72-1.09-1.06-1.68s-.64-1.16-.92-1.75c.28-.59.58-1.18.92-1.76s.69-1.16,1.06-1.68c.65-.06,1.32-.09,2-.09Zm0-2.36a17.55,17.55,0,0,1,1.2,1.37l0,0c-.4,0-.8,0-1.21,0s-.83,0-1.23,0a17.36,17.36,0,0,1,1.22-1.42ZM28,14.14a6.52,6.52,0,0,1,3.69,2.05h0a21.59,21.59,0,0,0-1.78,2.13l0,.06a19.51,19.51,0,0,0-2.94.52l.14,0a12.84,12.84,0,0,1-.23-1.28c-.21-1.68.05-3,.64-3.34a1.37,1.37,0,0,1,.51-.12Zm8.8,0h0a.94.94,0,0,1,.47.12h0c.6.35.86,1.66.66,3.34,0,.41-.13.85-.23,1.3A20.55,20.55,0,0,0,35,18.4h-.1A20.47,20.47,0,0,0,33,16.18h0a6.56,6.56,0,0,1,3.66-2.06h0Zm0-1a7.39,7.39,0,0,0-4.39,2.36h0A7.32,7.32,0,0,0,28,13.17h-.07a1.91,1.91,0,0,0-1,.26h0c-1.23.72-1.51,2.94-.87,5.73-2.74.85-4.53,2.2-4.53,3.63s1.8,2.79,4.55,3.63c-.64,2.8-.36,5,.88,5.74a1.9,1.9,0,0,0,.95.25H28A7.34,7.34,0,0,0,32.37,30h0a7.38,7.38,0,0,0,4.36,2.34h.08a1.93,1.93,0,0,0,1-.25h0c1.24-.71,1.52-2.94.88-5.73,2.73-.84,4.51-2.19,4.51-3.62S41.37,20,38.62,19.14c.64-2.8.35-5-.89-5.75a2,2,0,0,0-.95-.25Zm-2.38,9.63a2,2,0,1,1-.59-1.42h0a2,2,0,0,1,.59,1.42Z" transform="translate(-4.64 -13.14)"/><path class="a" d="M58.62,35.18l-7.23-4.09a1.74,1.74,0,0,0-1.48,0l-7.23,4.09a1.49,1.49,0,0,0-.74,1.27v8.1a1.49,1.49,0,0,0,.74,1.26L44.6,46.9a3.09,3.09,0,0,0,1.65.43,2,2,0,0,0,2.14-2.22v-8a.22.22,0,0,0-.22-.22h-.91a.22.22,0,0,0-.22.22v8c0,.66-.65,1.27-1.7.74l-2-1.13a.2.2,0,0,1-.09-.17v-8.1a.29.29,0,0,1,.09-.22l7.18-4h.26l7.19,4a.34.34,0,0,1,.09.22v8.1a.2.2,0,0,1-.09.17l-7.19,4.05a.24.24,0,0,1-.26,0l-1.83-1a.12.12,0,0,0-.17,0l-1.09.48c-.13,0-.3.08,0,.3l2.44,1.35a1.33,1.33,0,0,0,1.48,0l7.23-4a1.45,1.45,0,0,0,.74-1.26v-8.1A1.45,1.45,0,0,0,58.62,35.18Z" transform="translate(-4.64 -13.14)"/><path class="a" d="M52.88,43.24c-1.92,0-2.31-.44-2.49-1.35a.17.17,0,0,0-.17-.17h-1a.16.16,0,0,0-.17.17c0,1.18.65,2.61,3.79,2.61,2.26,0,3.57-.87,3.57-2.39s-1.05-2-3.27-2.22-2.44-.44-2.44-1,.18-1,1.83-1,2,.3,2.27,1.26a.21.21,0,0,0,.21.18H56l.17-.09a.21.21,0,0,0,0-.13c-.14-1.7-1.31-2.48-3.62-2.48S49.3,37.58,49.3,39s1.22,2,3.18,2.18,2.57.52,2.57,1S54.4,43.24,52.88,43.24Z" transform="translate(-4.64 -13.14)"/><path class="a" d="M14.76,31.1A10.13,10.13,0,1,0,24.88,41.22,10.13,10.13,0,0,0,14.76,31.1Zm0,18.95a8.83,8.83,0,1,1,8.83-8.83A8.84,8.84,0,0,1,14.76,50.05Z" transform="translate(-4.64 -13.14)"/><path class="a" d="M13.36,38.69a4.1,4.1,0,0,0-1.76-.36,4.29,4.29,0,0,0-1.8.37,2.83,2.83,0,0,0-1.23,1.06,3.07,3.07,0,0,0,0,3.2A2.86,2.86,0,0,0,9.83,44a4.07,4.07,0,0,0,1.77.38,3.88,3.88,0,0,0,2.09-.53,2.57,2.57,0,0,0,1.14-1.39l.06-.17H13.42l0,.08a1.4,1.4,0,0,1-.63.69,2.22,2.22,0,0,1-1.15.27,2.34,2.34,0,0,1-1.43-.44,1.6,1.6,0,0,1-.62-1.07h5.37l0-.11c0-.2,0-.4,0-.58a2.6,2.6,0,0,0-.43-1.45A2.89,2.89,0,0,0,13.36,38.69ZM9.57,40.82a1.57,1.57,0,0,1,.61-1,2.2,2.2,0,0,1,1.37-.43,2.78,2.78,0,0,1,1,.19,1.66,1.66,0,0,1,.72.54,1.32,1.32,0,0,1,.25.71Z" transform="translate(-4.64 -13.14)"/><polygon class="a" points="14.47 28.19 16.74 25.28 15.24 25.28 13.77 27.28 12.23 25.28 10.64 25.28 12.92 28.24 10.64 31.16 12.14 31.16 13.62 29.16 15.15 31.16 16.75 31.16 14.47 28.19"/></svg>