<?xml version="1.0" encoding="utf-8"?>
<!-- Generator: Adobe Illustrator 24.3.0, SVG Export Plug-In . SVG Version: 6.00 Build 0)  -->
<svg version="1.1" id="Layer_1" xmlns="http://www.w3.org/2000/svg" xmlns:xlink="http://www.w3.org/1999/xlink" x="0px" y="0px"
	 viewBox="0 0 359.7 301.7" style="enable-background:new 0 0 359.7 301.7;" xml:space="preserve">
<style type="text/css">
	.st0{fill:#A340E0;}
</style>
<g>
	<g>
		<path class="st0" d="M310.4,79.8H49.3c-9.7,0-17.6-9.4-17.6-21s7.9-21,17.6-21h261.2c9.7,0,17.6,9.4,17.6,21
			S320.2,79.8,310.4,79.8z"/>
	</g>
	<g>
		<path class="st0" d="M310.4,171.8H49.3c-9.7,0-17.6-9.4-17.6-21s7.9-21,17.6-21h261.2c9.7,0,17.6,9.4,17.6,21
			S320.2,171.8,310.4,171.8z"/>
	</g>
	<g>
		<path class="st0" d="M310.4,263.8H49.3c-9.7,0-17.6-9.4-17.6-21s7.9-21,17.6-21h261.2c9.7,0,17.6,9.4,17.6,21
			C328,254.4,320.2,263.8,310.4,263.8z"/>
	</g>
</g>
</svg>
