<svg xmlns="http://www.w3.org/2000/svg" viewBox="0 0 677.47 550.23"><defs><style>.a{fill:#8f2fd3;}</style></defs><path class="a" d="M623.48,149.82c.43,6,.43,12,.43,18.06,0,183.55-139.71,395-395,395A392.42,392.42,0,0,1,15.64,500.6a286.65,286.65,0,0,0,33.53,1.71A278.08,278.08,0,0,0,221.55,443,139.08,139.08,0,0,1,91.73,346.7,174.42,174.42,0,0,0,118,348.85a146.28,146.28,0,0,0,36.54-4.73A138.86,138.86,0,0,1,43.15,207.86v-1.72a139.93,139.93,0,0,0,62.76,17.62,139.06,139.06,0,0,1-43-185.7,394.71,394.71,0,0,0,286.3,145.3,156.79,156.79,0,0,1-3.44-31.81,139,139,0,0,1,240.3-95A273.36,273.36,0,0,0,674.2,23a138.45,138.45,0,0,1-61,76.52,278.39,278.39,0,0,0,80-21.49,298.58,298.58,0,0,1-69.63,71.78Z" transform="translate(-15.64 -12.7)"/></svg>