<svg xmlns="http://www.w3.org/2000/svg" viewBox="0 0 479.21 340.53"><defs><style>.a{fill:#8f2fd3;}</style></defs><path class="a" d="M399.53,212.24A98.16,98.16,0,0,1,338,187.74l4.56-21.54.16-.84c4.14-22.88,17-61.23,56.82-61.23a54.09,54.09,0,1,1,0,108.17h0Zm0-162.89c-50.82,0-90.26,33-106.27,87.37A447.25,447.25,0,0,1,239.48,18.81h-54.7V161.13a51,51,0,1,1-101.9,0V18.81H28.09V161.13a105.71,105.71,0,1,0,211.41,0V137.32A336,336,0,0,0,279,201.77L245.55,359.33h56L325.78,245.1a134.88,134.88,0,0,0,73.76,22.19,109,109,0,0,0,0-217.9Z" transform="translate(-28.09 -18.81)"/></svg>