<?xml version="1.0" encoding="utf-8"?>
<!-- Generator: Adobe Illustrator 24.3.0, SVG Export Plug-In . SVG Version: 6.00 Build 0)  -->
<svg version="1.1" id="Layer_1" xmlns="http://www.w3.org/2000/svg" xmlns:xlink="http://www.w3.org/1999/xlink" x="0px" y="0px"
	 viewBox="0 0 64 80" style="enable-background:new 0 0 64 80;" xml:space="preserve">
<style type="text/css">
	.st0{fill:#7323BE;}
</style>
<path class="st0" d="M63.2,46.7l-1.4-1.2c0-0.2,0-0.4,0-0.6c0-0.2,0-0.4,0-0.6l0,0l1.4-1.2c0.3-0.2,0.4-0.6,0.4-1
	c-0.3-1.5-0.7-3-1.4-4.4c-0.1-0.3-0.4-0.4-0.6-0.5V14c0-2.5-2-4.5-4.5-4.5H7c-2.5,0-4.5,2-4.5,4.5v36c0,2.5,2,4.5,4.5,4.5h29.6
	l-0.3,0.9c-0.1,0.3,0,0.7,0.3,1c1.1,1.1,2.4,2,3.7,2.7c0.3,0.2,0.7,0.2,1,0l1.5-1c0.4,0.1,0.8,0.3,1.2,0.4l0.6,1.7
	c0.1,0.3,0.4,0.6,0.8,0.6C46.3,61,47,61,47.8,61c0.9,0,1.6-0.1,2.3-0.2c0.4-0.1,0.7-0.3,0.8-0.6l0.6-1.7c0.4-0.1,0.8-0.2,1.2-0.4
	l1.5,1c0.3,0.2,0.7,0.2,1,0.1c1.4-0.7,2.7-1.7,3.7-2.7c0.3-0.3,0.4-0.6,0.3-1l-0.4-1.4c0.7-0.3,1.3-0.8,1.7-1.4l0.7,0
	c0.4,0,0.7-0.2,0.9-0.6c0.7-1.4,1.2-2.9,1.4-4.4C63.6,47.4,63.5,47,63.2,46.7z M46.4,58.9l-0.6-1.6c-0.1-0.3-0.4-0.5-0.7-0.6
	c-0.6-0.1-1.3-0.3-1.8-0.6c-0.3-0.1-0.7-0.1-0.9,0.1l-1.4,1c-0.8-0.5-1.6-1-2.3-1.7l0.5-1.7l0-0.3c0-0.3-0.1-0.5-0.2-0.7
	c-0.4-0.5-0.8-1-1.2-1.6c-0.2-0.3-0.5-0.4-0.8-0.5L35,50.7c-0.4-0.9-0.7-1.8-0.9-2.7l1.4-1.1c0.3-0.2,0.4-0.5,0.4-0.9l0-0.3
	c0-0.2,0-0.5,0-0.7c0-0.2,0-0.3,0-0.5l0-0.5c0-0.3-0.1-0.6-0.4-0.8l-1.4-1.1c0.2-0.9,0.5-1.9,0.9-2.7l1.7-0.1c0.3,0,0.7-0.2,0.8-0.5
	c0.3-0.6,0.7-1.1,1.1-1.6c0.2-0.3,0.3-0.6,0.2-0.9l-0.5-1.7c0.7-0.6,1.5-1.2,2.3-1.7l1.4,1c0.3,0.2,0.7,0.2,0.9,0.1
	c0.6-0.3,1.2-0.4,1.9-0.6c0.3-0.1,0.6-0.3,0.7-0.6l0.6-1.6c0.9-0.1,2-0.1,2.9,0l0.6,1.6c0.1,0.3,0.4,0.5,0.7,0.6
	c0.6,0.1,1.3,0.3,1.8,0.6c0.3,0.1,0.7,0.1,1-0.1l1.4-1c0.8,0.5,1.6,1,2.3,1.7l-0.5,1.7c-0.1,0.3,0,0.6,0.2,0.9
	c0.4,0.5,0.8,1,1.2,1.6c0.2,0.3,0.5,0.4,0.8,0.5l1.8,0.1c0.4,0.9,0.7,1.8,0.9,2.7l-1.4,1.1c-0.3,0.2-0.4,0.5-0.4,0.9l0,0.3
	c0,0.2,0,0.5,0,0.7c0,0.2,0,0.3,0,0.5l0,0.5c0,0.3,0.1,0.6,0.4,0.8l1.4,1.1c-0.2,1-0.5,1.9-0.9,2.7l-1.7,0.1c-0.3,0-0.7,0.2-0.8,0.5
	c-0.3,0.6-0.7,1.1-1.1,1.6L56.8,53v0c-0.1,0.2-0.1,0.5-0.1,0.7l0.5,1.7c-0.7,0.6-1.5,1.2-2.3,1.7l-1.4-1c-0.3-0.2-0.7-0.2-0.9-0.1
	c-0.6,0.3-1.2,0.4-1.9,0.6c-0.3,0.1-0.6,0.3-0.7,0.6l-0.6,1.6C48.3,59,47.3,59,46.4,58.9z M7,11.5h9.4c-1.5,0-2.8,0.9-3.3,2.3
	l-1,2.7H4.5V14C4.5,12.6,5.6,11.5,7,11.5z M59.5,14v2.5l-27.6,0l-1-2.7c-0.5-1.4-1.8-2.3-3.3-2.3H57C58.4,11.5,59.5,12.6,59.5,14z
	 M4.5,18.5h7.6c0.8,0,1.6-0.5,1.9-1.3l1-2.7c0.2-0.6,0.8-1,1.4-1h11.2c0.6,0,1.2,0.4,1.4,1l1,2.7c0.3,0.8,1,1.3,1.9,1.3h27.6v18.8
	l0,0c-0.2-0.3-0.4-0.7-0.7-1l0.5-1.7c0.1-0.3,0-0.7-0.3-1c-1.1-1.1-2.4-2-3.7-2.7c-0.3-0.2-0.7-0.1-1,0.1l-1.5,1
	c-0.4-0.1-0.8-0.3-1.2-0.4l-0.6-1.7c-0.1-0.3-0.4-0.6-0.8-0.6c-1.5-0.2-3.1-0.2-4.6,0c-0.4,0.1-0.7,0.3-0.8,0.6l-0.6,1.7
	c-0.4,0.1-0.8,0.2-1.2,0.4l-1.5-1c-0.3-0.2-0.7-0.2-1-0.1c-1.4,0.7-2.6,1.7-3.7,2.7c-0.3,0.3-0.4,0.6-0.3,1l0.5,1.8
	c-0.2,0.3-0.5,0.6-0.7,1l-1.8,0.1c-0.4,0-0.7,0.2-0.9,0.6c-0.7,1.4-1.2,2.9-1.4,4.4c-0.1,0.4,0.1,0.7,0.4,1l1.4,1.1
	c0,0.2,0,0.4,0,0.6c0,0.2,0,0.4,0,0.6l0,0l-1.4,1.2c-0.3,0.2-0.4,0.6-0.4,1c0.3,1.5,0.7,3,1.4,4.4c0.1,0.2,0.2,0.3,0.4,0.4H7
	c-1.4,0-2.5-1.1-2.5-2.5V18.5z"/>
<g>
	<g>
		<path class="st0" d="M29.2,36.1c-1.7,0-3.1-1.4-3.1-3.1c0-1.7,1.4-3.1,3.1-3.1s3.1,1.4,3.1,3.1C32.3,34.7,30.9,36.1,29.2,36.1z
			 M29.2,31.1c-1,0-1.9,0.8-1.9,1.9c0,1,0.8,1.9,1.9,1.9s1.9-0.8,1.9-1.9C31.1,32,30.2,31.1,29.2,31.1z"/>
	</g>
	<g>
		<path class="st0" d="M30.7,39.3c-0.1,0-0.3,0-0.4-0.1l-1.1-0.8c-0.1,0-0.1,0-0.2,0L28,39.2c-0.1,0.1-0.3,0.1-0.5,0.1
			c-0.5-0.1-1.1-0.4-1.5-0.6c-0.2-0.1-0.3-0.3-0.3-0.4l-0.2-1.3c0,0-0.1-0.1-0.1-0.1L24,36.6c-0.2,0-0.3-0.1-0.4-0.3
			c-0.3-0.5-0.5-1-0.6-1.5c0-0.2,0-0.4,0.1-0.5l0.8-1.1c0-0.1,0-0.1,0-0.2L23,31.8c-0.1-0.1-0.1-0.3-0.1-0.5
			c0.1-0.5,0.4-1.1,0.6-1.5c0.1-0.2,0.3-0.3,0.4-0.3l1.3-0.2c0,0,0.1-0.1,0.1-0.1l0.2-1.3c0-0.2,0.1-0.3,0.3-0.4
			c0.5-0.3,1-0.5,1.5-0.6c0.2,0,0.4,0,0.5,0.1l1.1,0.8c0.1,0,0.1,0,0.2,0l1.1-0.8c0.1-0.1,0.3-0.1,0.5-0.1c0.5,0.1,1.1,0.4,1.5,0.6
			c0.2,0.1,0.3,0.3,0.3,0.4l0.2,1.3c0,0,0.1,0.1,0.1,0.1l1.3,0.2c0.2,0,0.3,0.1,0.4,0.3c0.3,0.5,0.5,1,0.6,1.5c0,0.2,0,0.4-0.1,0.5
			l-0.8,1.1c0,0.1,0,0.1,0,0.2l0.8,1.1c0.1,0.1,0.1,0.3,0.1,0.5c-0.1,0.5-0.4,1.1-0.6,1.5c-0.1,0.2-0.3,0.3-0.4,0.3l-1.3,0.2
			c0,0-0.1,0.1-0.1,0.1l-0.2,1.3c0,0.2-0.1,0.3-0.3,0.4c-0.5,0.3-1,0.5-1.5,0.6C30.8,39.3,30.8,39.3,30.7,39.3z M29.5,37.2
			c0.1,0,0.3,0,0.4,0.1l1,0.8c0.2-0.1,0.5-0.2,0.7-0.3l0.2-1.2c0-0.1,0.1-0.3,0.2-0.4c0.1-0.1,0.4-0.4,0.4-0.4
			c0.1-0.1,0.2-0.2,0.4-0.2l1.2-0.2c0.1-0.2,0.2-0.5,0.3-0.7l-0.8-1c-0.1-0.1-0.1-0.3-0.1-0.4c0-0.1,0-0.4,0-0.5
			c0-0.1,0-0.3,0.1-0.4l0.8-1c-0.1-0.2-0.2-0.5-0.3-0.7l-1.2-0.2c-0.1,0-0.3-0.1-0.4-0.2c-0.1-0.1-0.2-0.3-0.4-0.4
			c-0.1-0.1-0.2-0.2-0.2-0.4l-0.2-1.2c-0.2-0.1-0.5-0.2-0.7-0.3l-1,0.8c-0.1,0.1-0.3,0.1-0.4,0.1c-0.2,0-0.3,0-0.5,0
			c-0.1,0-0.3,0-0.4-0.1l-1-0.8c-0.2,0.1-0.5,0.2-0.7,0.3l-0.2,1.2c0,0.1-0.1,0.3-0.2,0.4c-0.1,0.1-0.3,0.3-0.4,0.4
			c-0.1,0.1-0.2,0.2-0.4,0.2l-1.2,0.2c-0.1,0.2-0.2,0.5-0.3,0.7l0.8,1c0.1,0.1,0.1,0.3,0.1,0.4c0,0.1,0,0.4,0,0.5
			c0,0.1,0,0.3-0.1,0.4l-0.8,1c0.1,0.2,0.2,0.5,0.3,0.7l1.2,0.2c0.1,0,0.3,0.1,0.4,0.2c0.1,0.1,0.3,0.3,0.4,0.4
			c0.1,0.1,0.2,0.2,0.2,0.4l0.2,1.2c0.2,0.1,0.5,0.2,0.7,0.3l1-0.8c0.1-0.1,0.3-0.1,0.4-0.1C29.1,37.2,29.3,37.2,29.5,37.2
			C29.5,37.2,29.5,37.2,29.5,37.2z"/>
	</g>
</g>
<g>
	<path class="st0" d="M47.8,51.7c-3.7,0-6.7-3-6.7-6.7c0-3.7,3-6.7,6.7-6.7c3.7,0,6.7,3,6.7,6.7C54.5,48.7,51.5,51.7,47.8,51.7z
		 M47.8,40.9c-2.2,0-4.1,1.8-4.1,4.1c0,2.2,1.8,4.1,4.1,4.1c2.2,0,4.1-1.8,4.1-4.1C51.9,42.8,50.1,40.9,47.8,40.9z"/>
</g>
<circle class="st0" cx="18.8" cy="16.8" r="1"/>
<circle class="st0" cx="21.8" cy="16.8" r="1"/>
<circle class="st0" cx="24.7" cy="16.8" r="1"/>
<path class="st0" d="M55.2,15.1h-1.7c-0.2,0-0.4-0.2-0.4-0.4v-1.7c0-0.2,0.2-0.4,0.4-0.4h1.7c0.2,0,0.4,0.2,0.4,0.4v1.7
	C55.6,14.9,55.4,15.1,55.2,15.1z"/>
<path class="st0" d="M52.4,15.1h-1.3c-0.2,0-0.4-0.2-0.4-0.4v-1.2c0-0.2,0.2-0.4,0.4-0.4h1.3c0.2,0,0.4,0.2,0.4,0.4v1.2
	C52.8,14.9,52.6,15.1,52.4,15.1z"/>
<path class="st0" d="M50,15.1h-1.7c-0.2,0-0.4-0.2-0.4-0.4v0c0-0.2,0.2-0.4,0.4-0.4H50c0.2,0,0.4,0.2,0.4,0.4v0
	C50.4,14.9,50.2,15.1,50,15.1z"/>
</svg>
