<svg xmlns="http://www.w3.org/2000/svg" viewBox="0 0 468.52 329.43"><defs><style>.a{fill:#8f2fd3;}</style></defs><path class="a" d="M516.39,175A58.88,58.88,0,0,0,475,133.28c-36.54-9.85-183-9.85-183-9.85s-146.52,0-183,9.85A58.88,58.88,0,0,0,67.45,175c-9.79,36.78-9.79,113.5-9.79,113.5s0,76.73,9.79,113.51a58,58,0,0,0,41.42,41c36.54,9.86,183.05,9.86,183.05,9.86s146.51,0,183.05-9.86a58,58,0,0,0,41.42-41c9.79-36.78,9.79-113.51,9.79-113.51s0-76.72-9.79-113.5ZM244,358.14V218.81l122.46,69.67L244,358.14Z" transform="translate(-57.66 -123.43)"/></svg>